# xmcd CD database file
#
# Track frame offsets:
#	150
#	19933
#	51816
#	95429
#	129032
#	147248
#	172333
#	203297
#	229939
#	259552
#
# Disc length: 3930 seconds
#
# Revision: 1
# Processed by: cddbd v1.5.2PL0 Copyright (c) Steve Scherf et al.
# Submitted via: CDex 1.70beta2
#
DISCID=800f580a
DTITLE=Senai Demirci - Kıl Beni Ey Namaz
DYEAR=2006
DGENRE=
TTITLE0=Kıl Beni Ey Namaz
TTITLE1=Yandım Gül Oldum
TTITLE2=Kimselere Diyemem
TTITLE3=Seccaden Alnını Öpmeye Geliyor
TTITLE4=Enstrumantal
TTITLE5=Sabah Namazı
TTITLE6=Şimdi Öğle
TTITLE7=İkindinin Hüznünde
TTITLE8=Akşamındır Şimdi
TTITLE9=Yatsının Yalnızlığı
EXTD=YEAR: 2006
EXTT0=
EXTT1=
EXTT2=
EXTT3=
EXTT4=
EXTT5=
EXTT6=
EXTT7=
EXTT8=
EXTT9=
PLAYORDER=
